<svg width="10" height="10" viewBox="0 0 10 10" fill="none" xmlns="http://www.w3.org/2000/svg">
<path d="M4.75961 0.769234C5.91994 0.769234 7.03273 1.23017 7.8532 2.05064C8.67368 2.87111 9.13461 3.98391 9.13461 5.14423C9.13461 6.30456 8.67368 7.41735 7.8532 8.23783C7.03273 9.0583 5.91994 9.51923 4.75961 9.51923C3.59929 9.51923 2.48649 9.0583 1.66602 8.23783C0.845549 7.41735 0.384613 6.30456 0.384613 5.14423C0.384613 3.98391 0.845549 2.87111 1.66602 2.05064C2.48649 1.23017 3.59929 0.769234 4.75961 0.769234ZM4.21461 6.00736L3.24274 5.03486C3.2079 5.00002 3.16653 4.97238 3.12101 4.95352C3.07549 4.93467 3.0267 4.92496 2.97743 4.92496C2.92815 4.92496 2.87936 4.93467 2.83384 4.95352C2.78832 4.97238 2.74695 5.00002 2.71211 5.03486C2.64175 5.10522 2.60222 5.20066 2.60222 5.30017C2.60222 5.39968 2.64175 5.49512 2.71211 5.56548L3.94961 6.80298C3.98436 6.838 4.02569 6.86579 4.07122 6.88476C4.11676 6.90372 4.1656 6.91349 4.21493 6.91349C4.26425 6.91349 4.31309 6.90372 4.35863 6.88476C4.40416 6.86579 4.44549 6.838 4.48024 6.80298L7.04274 4.23986C7.07804 4.20516 7.10613 4.16382 7.12538 4.11821C7.14463 4.07261 7.15466 4.02364 7.15489 3.97414C7.15512 3.92464 7.14555 3.87558 7.12672 3.8298C7.1079 3.78401 7.0802 3.74241 7.04521 3.70739C7.01023 3.67236 6.96866 3.64461 6.9229 3.62573C6.87714 3.60685 6.82809 3.59722 6.77859 3.5974C6.72909 3.59757 6.68011 3.60754 6.63448 3.62673C6.58885 3.64593 6.54748 3.67397 6.51274 3.70923L4.21461 6.00736Z" fill="#8594AB"/>
</svg>
