<svg width="31" height="29" viewBox="0 0 31 29" fill="none" xmlns="http://www.w3.org/2000/svg">
<g clip-path="url(#clip0_9_2193)">
<path d="M13.04 12.8358L10.4427 15L13.04 17.1642C13.1261 17.2348 13.1975 17.3218 13.2498 17.42C13.3022 17.5183 13.3346 17.626 13.3451 17.7369C13.3557 17.8478 13.3442 17.9596 13.3113 18.066C13.2784 18.1724 13.2248 18.2713 13.1535 18.3568C13.0822 18.4424 12.9947 18.513 12.896 18.5646C12.7973 18.6162 12.6893 18.6477 12.5784 18.6574C12.4674 18.667 12.3557 18.6546 12.2495 18.6209C12.1434 18.5872 12.045 18.5327 11.96 18.4608L8.585 15.6483C8.48995 15.5691 8.41347 15.47 8.36099 15.3579C8.3085 15.2459 8.2813 15.1237 8.2813 15C8.2813 14.8763 8.3085 14.7541 8.36099 14.6421C8.41347 14.53 8.48995 14.4309 8.585 14.3517L11.96 11.5392C12.1322 11.3981 12.3531 11.3308 12.5747 11.3519C12.7964 11.3729 13.0006 11.4808 13.1431 11.6518C13.2856 11.8228 13.3547 12.0433 13.3354 12.265C13.3161 12.4868 13.2099 12.6919 13.04 12.8358ZM25.415 14.3517L22.04 11.5392C21.955 11.4673 21.8566 11.4128 21.7505 11.3791C21.6443 11.3453 21.5326 11.333 21.4216 11.3426C21.3107 11.3523 21.2027 11.3838 21.104 11.4354C21.0053 11.487 20.9178 11.5576 20.8465 11.6432C20.7752 11.7287 20.7216 11.8276 20.6887 11.934C20.6558 12.0404 20.6443 12.1522 20.6549 12.2631C20.6654 12.374 20.6978 12.4817 20.7502 12.58C20.8026 12.6782 20.8739 12.7652 20.96 12.8358L23.5573 15L20.96 17.1642C20.8739 17.2348 20.8026 17.3218 20.7502 17.42C20.6978 17.5183 20.6654 17.626 20.6549 17.7369C20.6443 17.8478 20.6558 17.9596 20.6887 18.066C20.7216 18.1724 20.7752 18.2713 20.8465 18.3568C20.9178 18.4424 21.0053 18.513 21.104 18.5646C21.2027 18.6162 21.3107 18.6477 21.4216 18.6574C21.5326 18.667 21.6443 18.6546 21.7505 18.6209C21.8566 18.5872 21.955 18.5327 22.04 18.4608L25.415 15.6483C25.5101 15.5691 25.5865 15.47 25.639 15.3579C25.6915 15.2459 25.7187 15.1237 25.7187 15C25.7187 14.8763 25.6915 14.7541 25.639 14.6421C25.5865 14.53 25.5101 14.4309 25.415 14.3517ZM19.5383 8.01937C19.4341 7.9815 19.3235 7.96451 19.2128 7.96938C19.1021 7.97426 18.9934 8.00089 18.893 8.04778C18.7926 8.09466 18.7024 8.16086 18.6275 8.24261C18.5527 8.32436 18.4947 8.42005 18.4569 8.52422L13.9569 20.8992C13.8806 21.1095 13.8909 21.3414 13.9856 21.5441C14.0803 21.7467 14.2515 21.9035 14.4617 21.9799C14.554 22.014 14.6516 22.0314 14.75 22.0312C14.9232 22.0313 15.0923 21.978 15.2342 21.8786C15.3761 21.7792 15.4839 21.6386 15.5431 21.4758L20.0431 9.10078C20.081 8.99663 20.098 8.88603 20.0931 8.77531C20.0882 8.66459 20.0616 8.55592 20.0147 8.4555C19.9678 8.35507 19.9016 8.26487 19.8199 8.19004C19.7381 8.11521 19.6425 8.05722 19.5383 8.01937Z" fill="#8594AB"/>
</g>
<defs>
<clipPath id="clip0_9_2193">
<rect width="31" height="29" fill="white"/>
</clipPath>
</defs>
</svg>
