<svg width="31" height="29" viewBox="0 0 31 29" fill="none" xmlns="http://www.w3.org/2000/svg">
<g clip-path="url(#clip0_9_2159)">
<path fill-rule="evenodd" clip-rule="evenodd" d="M9 9.78261C9 9.57505 9.08579 9.37599 9.2385 9.22922C9.39121 9.08245 9.59832 9 9.81429 9H27.1857C27.4017 9 27.6088 9.08245 27.7615 9.22922C27.9142 9.37599 28 9.57505 28 9.78261C28 9.99017 27.9142 10.1892 27.7615 10.336C27.6088 10.4828 27.4017 10.5652 27.1857 10.5652H9.81429C9.59832 10.5652 9.39121 10.4828 9.2385 10.336C9.08579 10.1892 9 9.99017 9 9.78261ZM9 15C9 14.7924 9.08579 14.5934 9.2385 14.4466C9.39121 14.2998 9.59832 14.2174 9.81429 14.2174H21.7571C21.9731 14.2174 22.1802 14.2998 22.3329 14.4466C22.4856 14.5934 22.5714 14.7924 22.5714 15C22.5714 15.2076 22.4856 15.4066 22.3329 15.5534C22.1802 15.7002 21.9731 15.7826 21.7571 15.7826H9.81429C9.59832 15.7826 9.39121 15.7002 9.2385 15.5534C9.08579 15.4066 9 15.2076 9 15ZM9 20.2174C9 20.0098 9.08579 19.8108 9.2385 19.664C9.39121 19.5172 9.59832 19.4348 9.81429 19.4348H15.2429C15.4588 19.4348 15.6659 19.5172 15.8186 19.664C15.9714 19.8108 16.0571 20.0098 16.0571 20.2174C16.0571 20.425 15.9714 20.624 15.8186 20.7708C15.6659 20.9175 15.4588 21 15.2429 21H9.81429C9.59832 21 9.39121 20.9175 9.2385 20.7708C9.08579 20.624 9 20.425 9 20.2174Z" fill="#8594AB"/>
</g>
<defs>
<clipPath id="clip0_9_2159">
<rect width="31" height="29" fill="white"/>
</clipPath>
</defs>
</svg>
