<svg width="74" height="82" viewBox="0 0 74 82" fill="none" xmlns="http://www.w3.org/2000/svg">
<path d="M37.0084 5.27107C38.3378 5.27107 39.6435 5.61842 40.794 6.28279L64.9512 20.2243C66.1027 20.8892 67.0588 21.8455 67.7233 22.9969C68.3878 24.1483 68.7373 25.4544 68.7367 26.7836V55.2265C68.7367 57.9312 67.296 60.4301 64.9512 61.7824L40.7906 75.7273C39.6391 76.3918 38.333 76.7417 37.0034 76.7417C35.6738 76.7417 34.3676 76.3918 33.2162 75.7273L9.0522 61.7824C7.90077 61.118 6.94452 60.1624 6.27946 59.0116C5.6144 57.8609 5.26395 56.5555 5.2633 55.2265V26.7836C5.2633 24.079 6.70733 21.58 9.0522 20.2243L33.2094 6.28279C34.3633 5.61842 35.6724 5.26769 36.9983 5.26769H37.0051L37.0084 5.27107ZM37.0017 0.00674432C34.7488 0.00806428 32.5358 0.601183 30.5845 1.72667L6.42055 15.6648C4.4708 16.7939 2.85167 18.4148 1.72497 20.3654C0.598266 22.3159 0.00346255 24.5279 0 26.7803V55.2231C0.00346255 57.4755 0.598266 59.6874 1.72497 61.638C2.85167 63.5886 4.4708 65.2094 6.42055 66.3386L30.5778 80.2801C34.5522 82.5733 39.4478 82.5733 43.4189 80.2801L67.5794 66.3386C69.5292 65.2094 71.1483 63.5886 72.275 61.638C73.4017 59.6874 73.9965 57.4755 74 55.2231V26.7803C73.9965 24.5279 73.4017 22.3159 72.275 20.3654C71.1483 18.4148 69.5292 16.7939 67.5794 15.6648L43.4222 1.71993C41.4689 0.593296 39.2535 0.000137345 36.9983 0L37.0017 0.00674432Z" fill="#1E1E1E"/>
<path d="M34.0427 45.4701C33.7652 45.4705 33.4924 45.3978 33.2519 45.2593C33.0114 45.1207 32.8117 44.9212 32.6729 44.681L29.768 39.646C29.6294 39.406 29.5565 39.1339 29.5565 38.8568C29.5565 38.5798 29.6294 38.3076 29.768 38.0677L32.6729 33.0327C32.8117 32.7924 33.0114 32.593 33.2519 32.4544C33.4924 32.3159 33.7652 32.2431 34.0427 32.2435H39.9741C40.2509 32.2444 40.5228 32.3177 40.7625 32.4562C41.0022 32.5946 41.2015 32.7934 41.3405 33.0327L44.2488 38.0677C44.3874 38.3076 44.4604 38.5798 44.4604 38.8568C44.4604 39.1339 44.3874 39.406 44.2488 39.646L41.3405 44.681C41.202 44.9208 41.0028 45.1199 40.763 45.2584C40.5232 45.3969 40.2511 45.4699 39.9741 45.4701H34.0427ZM26.1174 37.5416C26.3949 37.5413 26.6674 37.4683 26.9077 37.3298C27.1481 37.1914 27.3479 36.9923 27.4872 36.7525L30.3922 31.7175C30.5308 31.4775 30.6037 31.2054 30.6037 30.9283C30.6037 30.6513 30.5308 30.3791 30.3922 30.1392L26.7686 23.8631L19.6935 27.7212C19.4399 27.8601 19.2293 28.0659 19.0847 28.3163C18.9401 28.5667 18.8671 28.8519 18.8736 29.1409C18.931 31.967 19.2616 34.7796 19.8554 37.5416H26.1174ZM47.896 37.5416C47.619 37.5414 47.3469 37.4684 47.1071 37.3299C46.8673 37.1914 46.6681 36.9922 46.5296 36.7525L43.6213 31.7175C43.4827 31.4775 43.4097 31.2054 43.4097 30.9283C43.4097 30.6513 43.4827 30.3791 43.6213 30.1392L47.2449 23.8631L54.3166 27.7212C54.5703 27.8593 54.7813 28.0645 54.9264 28.3142C55.0716 28.564 55.1454 28.8488 55.1398 29.1376C55.0822 31.9637 54.7546 34.7778 54.1614 37.5416H47.896ZM37.7642 18.6865C37.5323 18.5602 37.2725 18.494 37.0084 18.494C36.7443 18.494 36.4845 18.5602 36.2527 18.6865L29.0797 22.5985L32.6763 28.8239C32.8148 29.0637 33.014 29.2629 33.2538 29.4014C33.4937 29.5399 33.7657 29.6129 34.0427 29.6131H39.9741C40.2511 29.6132 40.5234 29.5404 40.7633 29.4018C41.0032 29.2633 41.2023 29.0639 41.3405 28.8239L44.9371 22.6018L37.7642 18.6899V18.6865ZM20.51 40.1721C21.8632 44.9839 24.0252 49.5306 26.9035 53.6179L30.3955 47.5745C30.5341 47.3346 30.6071 47.0624 30.6071 46.7854C30.6071 46.5083 30.5341 46.2361 30.3955 45.9962L27.4872 40.9612C27.3487 40.7214 27.1496 40.5223 26.9097 40.3838C26.6699 40.2453 26.3978 40.1723 26.1208 40.1721H20.51ZM53.5001 40.1721C52.1479 44.9837 49.9871 49.5304 47.1099 53.6179L43.6179 47.5745C43.4793 47.3346 43.4064 47.0624 43.4064 46.7854C43.4064 46.5083 43.4793 46.2361 43.6179 45.9962L46.5296 40.9612C46.6681 40.7214 46.8673 40.5223 47.1071 40.3838C47.3469 40.2453 47.619 40.1723 47.896 40.1721H53.5035H53.5001ZM34.0427 48.1006C33.7652 48.1002 33.4924 48.1729 33.2519 48.3115C33.0114 48.45 32.8117 48.6495 32.6729 48.8897L28.6242 55.9043C30.8047 58.6124 33.2947 61.056 36.0435 63.1854C36.3206 63.3984 36.6605 63.5139 37.0101 63.5139C37.3597 63.5139 37.6996 63.3984 37.9767 63.1854C40.7245 61.0547 43.2134 58.61 45.3926 55.901L41.3439 48.8897C41.2054 48.65 41.0062 48.4508 40.7664 48.3123C40.5265 48.1738 40.2544 48.1008 39.9774 48.1006H34.0394H34.0427Z" fill="#1E1E1E"/>
</svg>
