<svg width="10" height="10" viewBox="0 0 10 10" fill="none" xmlns="http://www.w3.org/2000/svg">
<g clip-path="url(#clip0_9_2150)">
<path opacity="0.5" d="M5.00001 0.833328C4.17592 0.833328 3.37034 1.0777 2.68514 1.53554C1.99993 1.99338 1.46588 2.64412 1.15051 3.40548C0.835149 4.16684 0.752635 5.00462 0.913407 5.81287C1.07418 6.62113 1.47101 7.36355 2.05373 7.94627C2.63645 8.52899 3.37888 8.92583 4.18714 9.0866C4.99539 9.24737 5.83317 9.16486 6.59453 8.84949C7.35589 8.53413 8.00663 8.00008 8.46447 7.31487C8.92231 6.62967 9.16668 5.82408 9.16668 5C9.16668 4.45282 9.0589 3.911 8.84951 3.40548C8.64012 2.89996 8.3332 2.44063 7.94629 2.05372C7.55938 1.66681 7.10005 1.35989 6.59453 1.1505C6.089 0.941102 5.54719 0.833328 5.00001 0.833328ZM5.00001 8.33333C4.34074 8.33333 3.69627 8.13783 3.14811 7.77156C2.59995 7.40529 2.17271 6.88469 1.92041 6.27561C1.66812 5.66652 1.60211 4.9963 1.73073 4.34969C1.85935 3.70309 2.17681 3.10915 2.64299 2.64297C3.10916 2.1768 3.70311 1.85933 4.34971 1.73071C4.99631 1.60209 5.66654 1.6681 6.27562 1.9204C6.88471 2.17269 7.40531 2.59993 7.77158 3.14809C8.13785 3.69626 8.33334 4.34072 8.33334 5C8.33334 5.88405 7.98216 6.7319 7.35703 7.35702C6.73191 7.98214 5.88407 8.33333 5.00001 8.33333Z" fill="#8594AB"/>
<path d="M8.33333 4.99999H9.16667C9.16667 4.45282 9.05889 3.911 8.8495 3.40548C8.6401 2.89996 8.33319 2.44063 7.94628 2.05372C7.55937 1.66681 7.10004 1.35989 6.59451 1.1505C6.08899 0.941102 5.54717 0.833328 5 0.833328V1.66666C5.88405 1.66666 6.7319 2.01785 7.35702 2.64297C7.98214 3.26809 8.33333 4.11594 8.33333 4.99999Z" fill="#8594AB"/>
</g>
<defs>
<clipPath id="clip0_9_2150">
<rect width="10" height="10" fill="white"/>
</clipPath>
</defs>
</svg>
